<?xml version="1.0" encoding="UTF-8" standalone="no"?>
<!-- Created with Inkscape (http://www.inkscape.org/) -->

<svg
   width="250"
   height="100"
   viewBox="0 0 66.145828 26.458333"
   version="1.1"
   id="svg1"
   xmlns:xlink="http://www.w3.org/1999/xlink"
   xmlns="http://www.w3.org/2000/svg"
   xmlns:svg="http://www.w3.org/2000/svg">
  <defs
     id="defs1">
    <linearGradient
       id="linearGradient21">
      <stop
         style="stop-color:#fe802e;stop-opacity:1;"
         offset="0.52216446"
         id="stop21" />
      <stop
         style="stop-color:#ffffff;stop-opacity:1;"
         offset="0.52216446"
         id="stop22" />
    </linearGradient>
    <linearGradient
       id="swatch1">
      <stop
         style="stop-color:#006cac;stop-opacity:0.0627451;"
         offset="0"
         id="stop1" />
    </linearGradient>
    <linearGradient
       id="swatch2">
      <stop
         style="stop-color:#006cac;stop-opacity:1;"
         offset="0"
         id="stop2" />
    </linearGradient>
    <linearGradient
       xlink:href="#swatch1"
       id="linearGradient1"
       x1="-121.07617"
       y1="-3.6923821"
       x2="134.82031"
       y2="-3.6923821"
       gradientUnits="userSpaceOnUse"
       gradientTransform="matrix(0.02752034,0,0,0.02752034,53.833404,13.958562)" />
    <linearGradient
       xlink:href="#swatch2"
       id="linearGradient2"
       x1="-121.07625"
       y1="-3.6923821"
       x2="134.82039"
       y2="-3.6923821"
       gradientUnits="userSpaceOnUse"
       gradientTransform="matrix(0.02752034,0,0,0.02752034,53.833404,13.958562)" />
    <linearGradient
       xlink:href="#swatch2"
       id="linearGradient19"
       x1="44.83688"
       y1="8.7117443"
       x2="63.335293"
       y2="8.7117443"
       gradientUnits="userSpaceOnUse"
       gradientTransform="translate(3.0147833,-0.5582932)" />
    <linearGradient
       xlink:href="#linearGradient21"
       id="linearGradient22"
       x1="61.083431"
       y1="-4.3432088"
       x2="4.7080684"
       y2="30.884026"
       gradientUnits="userSpaceOnUse" />
  </defs>
  <rect
     style="display:inline;fill:url(#linearGradient22);fill-opacity:1;stroke:#fe802e;stroke-width:0;stroke-linecap:round;stroke-linejoin:round;stroke-dasharray:none;stroke-opacity:1"
     id="rect2"
     width="66.476608"
     height="26.54081"
     x="-0.34256056"
     y="0" />
  <g
     id="layer1">
    <g
       id="g19"
       transform="translate(-0.1936222,0.58928836)">
      <text
         xml:space="preserve"
         style="font-weight:bold;font-size:9.54715px;font-family:sans-serif;-inkscape-font-specification:'sans-serif Bold';text-align:start;writing-mode:lr-tb;direction:ltr;text-anchor:start;fill:#006cac;fill-opacity:1;stroke-width:0.143207"
         x="8.5011692"
         y="15.572453"
         id="text1"><tspan
           id="tspan1"
           style="font-style:normal;font-variant:normal;font-weight:normal;font-stretch:normal;font-size:9.54715px;font-family:sans-serif;-inkscape-font-specification:sans-serif;fill:#006cac;fill-opacity:1;stroke-width:0.143207"
           x="8.5011692"
           y="15.572453">ـدونة أتعلم</tspan></text>
      <path
         id="rect1"
         style="mix-blend-mode:normal;fill:url(#linearGradient1);stroke:url(#linearGradient2);stroke-width:0.704243;stroke-dasharray:none"
         d="m 51.557708,11.040009 c -0.390148,0 -0.704241,0.314092 -0.704241,0.70424 v 2.816911 c 0,0.390149 0.314093,0.704241 0.704241,0.704241 h 4.929636 c 0.390148,0 0.704241,-0.314092 0.704241,-0.704241 v -2.816911 c 0,-0.390148 -0.314093,-0.70424 -0.704241,-0.70424 z m -1.056362,5.633876 h 7.042359 z" />
      <path
         style="font-size:6.18622px;-inkscape-font-specification:sans-serif;display:inline;fill:url(#linearGradient19);stroke:#000000;stroke-width:11.6765;stroke-opacity:0"
         d="m 55.008637,8.2521014 q -0.03209,-0.00713 -0.09982,-0.042777 -0.384992,-0.1996267 -0.384992,-0.5382793 0,-0.3101347 0.245969,-0.4955025 0.09982,-0.07486 0.324394,-0.07486 0.260228,0 0.402818,0.1390259 0.196062,0.1924974 0.196062,0.4741139 0,0.1140728 -0.04991,0.2744868 0.0606,0.00356 0.124767,0.00713 0.06416,0 0.135461,0 0,0 0,0.3921242 -0.124767,0 -0.23884,-0.00713 -0.106944,-0.00713 -0.206756,-0.017824 -0.153285,0.2174507 -0.399254,0.3671708 -0.712953,0.4384662 -1.236973,0.4384662 0,0 0,-0.3921242 0.541844,0 1.037347,-0.3885594 0.08198,-0.064166 0.14972,-0.1354611 z M 55.247476,7.924143 q 0.01074,-0.024953 0.02138,-0.049907 0.03209,-0.07486 0.03209,-0.1604145 0,-0.1212021 -0.0606,-0.1711088 -0.0606,-0.049907 -0.131897,-0.049907 -0.08198,0 -0.121202,0.032082 -0.06417,0.046342 -0.06417,0.1461555 0,0.1318962 0.160415,0.196062 0.07129,0.028518 0.163979,0.057036 z"
         id="path19" />
    </g>
  </g>
</svg>
